<?xml version="1.0" encoding="UTF-8" standalone="no"?>
<svg
   xmlns:dc="http://purl.org/dc/elements/1.1/"
   xmlns:cc="http://creativecommons.org/ns#"
   xmlns:rdf="http://www.w3.org/1999/02/22-rdf-syntax-ns#"
   xmlns:svg="http://www.w3.org/2000/svg"
   xmlns="http://www.w3.org/2000/svg"
   xmlns:sodipodi="http://sodipodi.sourceforge.net/DTD/sodipodi-0.dtd"
   xmlns:inkscape="http://www.inkscape.org/namespaces/inkscape"
   width="37.740005mm"
   height="29.200274mm"
   viewBox="0 0 37.740005 29.200274"
   version="1.1"
   id="svg8"
   inkscape:version="1.0 (4035a4fb49, 2020-05-01)"
   sodipodi:docname="drawing.svg">
  <defs
     id="defs2" />
  <sodipodi:namedview
     id="base"
     pagecolor="#ffffff"
     bordercolor="#666666"
     borderopacity="1.0"
     inkscape:pageopacity="0.0"
     inkscape:pageshadow="2"
     inkscape:zoom="3.959798"
     inkscape:cx="95.741153"
     inkscape:cy="37.540051"
     inkscape:document-units="mm"
     inkscape:current-layer="layer1"
     inkscape:document-rotation="0"
     showgrid="false"
     inkscape:window-width="1274"
     inkscape:window-height="1040"
     inkscape:window-x="130"
     inkscape:window-y="0"
     inkscape:window-maximized="0" />
  <metadata
     id="metadata5">
    <rdf:RDF>
      <cc:Work
         rdf:about="">
        <dc:format>image/svg+xml</dc:format>
        <dc:type
           rdf:resource="http://purl.org/dc/dcmitype/StillImage" />
        <dc:title />
      </cc:Work>
    </rdf:RDF>
  </metadata>
  <g
     inkscape:label="Layer 1"
     inkscape:groupmode="layer"
     id="layer1"
     transform="translate(-27.680272,-54.45307)">
    <path
       id="path34"
       style="fill:#ffffff;fill-opacity:1;stroke-width:0.0668173"
       d="m 34.750832,54.45307 -3.52485,0.01705 -3.524332,0.01757 -0.01705,14.499373 c -0.0094,7.974653 -0.003,14.53664 0.01447,14.58258 0.02483,0.0653 0.795367,0.0837 3.541903,0.0837 h 3.509863 v -1.30328 -1.302764 H 32.646051 30.54127 V 69.086804 57.126809 h 2.104781 2.104781 v -1.336868 z m 23.586673,0.001 v 1.336352 1.336352 h 2.071193 2.07119 v 11.959995 11.960508 h -2.07119 -2.071193 v 1.258326 c 0,0.69212 0.02014,1.27898 0.04496,1.30379 0.02482,0.0248 1.611135,0.0374 3.52485,0.0279 l 3.479374,-0.0176 0.01654,-14.582564 0.01705,-14.583089 h -3.541387 z m -10.598319,2.345627 c -0.889892,0.01236 -1.788828,0.113112 -2.698543,0.302307 -2.521256,0.524354 -5.092341,1.997906 -6.659542,3.816305 -1.417336,1.644513 -2.297381,3.409101 -2.724381,5.462715 -0.15141,0.728191 -0.167492,0.961114 -0.173633,2.538865 -0.0059,1.523346 0.01056,1.819634 0.133325,2.405536 0.560191,2.6735 1.73024,4.808286 3.593062,6.555155 1.85286,1.737524 4.10222,2.81084 6.69985,3.197222 0.38588,0.05741 1.039367,0.07399 2.038118,0.05219 1.620377,-0.03535 2.403723,-0.156197 3.641637,-0.56224 1.021969,-0.335211 2.818757,-1.23454 3.749644,-1.876888 0.762875,-0.526415 2.196764,-1.783598 2.196764,-1.925979 0,-0.03367 -0.770753,-0.895495 -1.713074,-1.91513 -0.942322,-1.019633 -1.737831,-1.880706 -1.767332,-1.913578 -0.02974,-0.03314 -0.300495,0.162144 -0.608232,0.438735 -1.549601,1.392769 -3.582009,2.260327 -5.295802,2.260327 -2.868751,0 -5.260901,-1.850477 -6.116939,-4.732012 -0.194762,-0.655593 -0.200504,-0.717193 -0.200504,-2.052071 0,-1.285793 0.01146,-1.416378 0.175699,-1.990059 0.634693,-2.21698 2.161039,-3.857894 4.239535,-4.557863 0.675546,-0.227491 0.710336,-0.232026 1.787488,-0.232026 1.040847,0 1.134536,0.01095 1.774568,0.208256 1.310119,0.403879 2.573854,1.19157 3.573426,2.227255 0.344358,0.356798 0.650049,0.623734 0.679545,0.593246 0.0295,-0.03049 0.821735,-0.984353 1.760098,-2.119768 1.417169,-1.714767 1.694871,-2.084684 1.641245,-2.184881 -0.116673,-0.218004 -1.286148,-1.204797 -1.982309,-1.672763 -0.908618,-0.610783 -2.340303,-1.312074 -3.363102,-1.646928 -1.439326,-0.471223 -2.897455,-0.696521 -4.380611,-0.675928 z" />
  </g>
</svg>
