<?xml version="1.0" encoding="UTF-8" standalone="no"?>
<svg
   xmlns:dc="http://purl.org/dc/elements/1.1/"
   xmlns:cc="http://creativecommons.org/ns#"
   xmlns:rdf="http://www.w3.org/1999/02/22-rdf-syntax-ns#"
   xmlns:svg="http://www.w3.org/2000/svg"
   xmlns="http://www.w3.org/2000/svg"
   xmlns:sodipodi="http://sodipodi.sourceforge.net/DTD/sodipodi-0.dtd"
   xmlns:inkscape="http://www.inkscape.org/namespaces/inkscape"
   inkscape:version="1.0 (4035a4fb49, 2020-05-01)"
   sodipodi:docname="icon.xvg.svg"
   viewBox="0 0 142.40001 110.08"
   height="110.07999"
   width="142.40001"
   id="svg833"
   version="1.1">
  <metadata
     id="metadata839">
    <rdf:RDF>
      <cc:Work
         rdf:about="">
        <dc:format>image/svg+xml</dc:format>
        <dc:type
           rdf:resource="http://purl.org/dc/dcmitype/StillImage" />
        <dc:title></dc:title>
      </cc:Work>
    </rdf:RDF>
  </metadata>
  <defs
     id="defs837" />
  <sodipodi:namedview
     inkscape:current-layer="g841"
     inkscape:window-maximized="1"
     inkscape:window-y="-8"
     inkscape:window-x="1912"
     inkscape:cy="62.213783"
     inkscape:cx="71.27141"
     inkscape:zoom="4.3212892"
     showgrid="false"
     id="namedview835"
     inkscape:window-height="1017"
     inkscape:window-width="1920"
     inkscape:pageshadow="2"
     inkscape:pageopacity="0"
     guidetolerance="10"
     gridtolerance="10"
     objecttolerance="10"
     borderopacity="1"
     bordercolor="#666666"
     pagecolor="#ffffff" />
  <g
     transform="translate(-10.648588,-19.706215)"
     id="g841"
     inkscape:label="Image"
     inkscape:groupmode="layer">
    <path
       id="path845"
       d="m 23.928588,129.78621 h -13.28 v -55.039995 -55.04 h 13.28 13.28 v 4.96 4.96 h -8 -8 v 45.28 45.279995 h 8 8 v 4.8 4.8 z m 115.840002,0 h -13.28 v -4.8 -4.8 h 7.84 7.84 v -45.279995 -45.28 h -7.84 -7.84 v -4.96 -4.96 h 13.28 13.28 v 55.04 55.039995 z m -52.480002,-9.4375 c -2.992,0.0649 -6.376,-0.0115 -7.52,-0.16979 -1.144,-0.1583 -3.16,-0.52673 -4.48,-0.81874 -1.32,-0.292 -3.624,-0.95821 -5.12,-1.48045 -1.496,-0.52225 -4.039782,-1.63961 -5.652851,-2.48302 -1.613066,-0.84341 -3.982474,-2.2348 -5.265347,-3.09198 -1.282874,-0.85719 -3.682311,-2.84627 -5.332084,-4.42019 -1.649769,-1.57392 -3.926028,-4.09392 -5.058355,-5.6 -1.132323,-1.50608 -2.913942,-4.420765 -3.959149,-6.477075 -1.045209,-2.05631 -2.333683,-5.152312 -2.863276,-6.879999 -0.529591,-1.727689 -1.215274,-4.437251 -1.523738,-6.021251 -0.414499,-2.128499 -0.557606,-4.424752 -0.548435,-8.8 0.01024,-4.882163 0.137952,-6.509043 0.728531,-9.28 0.393866,-1.848 1.075507,-4.43297 1.514758,-5.744374 0.439255,-1.311405 1.413364,-3.621498 2.164692,-5.133536 0.751328,-1.512039 2.105356,-3.844765 3.008956,-5.18384 0.903597,-1.339076 2.519559,-3.45072 3.591021,-4.692548 1.071466,-1.241827 3.05673,-3.181014 4.411696,-4.309305 1.35497,-1.128291 3.471581,-2.700439 4.703581,-3.493661 1.232,-0.793226 3.392,-2.019699 4.8,-2.725501 1.408,-0.705798 3.79216,-1.718038 5.298134,-2.249417 1.505972,-0.531383 4.117469,-1.264992 5.803325,-1.630247 1.685856,-0.365254 5.03104,-0.813315 7.433741,-0.995689 3.039238,-0.230688 5.457475,-0.2289 7.947126,0.0059 1.968221,0.185609 4.818832,0.60816 6.334692,0.939001 1.515862,0.330842 3.896154,0.978544 5.289544,1.439341 1.3934,0.460794 4.26144,1.685517 6.37344,2.721606 2.112,1.036087 4.91216,2.604871 6.22257,3.486183 1.31041,0.881312 3.41486,2.512224 4.67656,3.624246 1.2617,1.112023 2.45358,2.265555 2.64862,2.563408 0.2984,0.45569 -0.69465,1.809571 -6.26371,8.539661 l -6.61834,7.998115 -2.63038,-2.660153 c -1.44672,-1.463085 -3.6125,-3.309117 -4.81286,-4.102295 -1.20035,-0.793177 -3.051537,-1.877417 -4.113739,-2.409424 -1.062205,-0.532006 -3.006205,-1.304822 -4.32,-1.717369 -2.033289,-0.638486 -3.031523,-0.74694 -6.708723,-0.728899 -3.78671,0.01859 -4.636022,0.126205 -6.88,0.871815 -1.408,0.467836 -3.477603,1.394297 -4.59912,2.0588 -1.121517,0.664505 -2.966246,2.056944 -4.099402,3.094313 -1.133152,1.03737 -2.60784,2.69337 -3.277081,3.68 -0.669245,0.986631 -1.667011,2.686794 -2.217264,3.778138 -0.55025,1.091344 -1.325869,3.107344 -1.723597,4.48 -0.616733,2.128502 -0.723139,3.24912 -0.723139,7.615737 0,4.400788 0.104019,5.479607 0.740502,7.68 0.407277,1.408 1.413424,3.836535 2.235882,5.396746 0.830918,1.576262 2.332083,3.749866 3.3784,4.891734 1.035661,1.130244 2.805993,2.713604 3.934067,3.518584 1.128077,0.80498 3.060781,1.88784 4.294899,2.40636 1.234122,0.51853 3.330221,1.15063 4.658003,1.40467 1.327783,0.25405 3.415552,0.46191 4.639492,0.46191 1.223936,0 3.327296,-0.22762 4.674131,-0.50581 1.346835,-0.2782 3.694531,-1.00442 5.217104,-1.61382 1.522576,-0.60939 4.050545,-1.93777 5.617725,-2.95195 1.56717,-1.01417 3.69883,-2.635348 4.73703,-3.602612 l 1.88763,-1.758663 3.4223,3.696425 c 1.88227,2.03303 4.93665,5.33334 6.78753,7.334005 l 3.36523,3.63758 -2.81482,2.63335 c -1.54815,1.44833 -4.22797,3.58264 -5.95516,4.74289 -1.72718,1.16025 -4.94034,2.97505 -7.14034,4.03288 -2.2,1.05783 -5.152,2.3078 -6.56,2.7777 -1.408002,0.4699 -3.856002,1.13519 -5.440002,1.47843 -2.017472,0.43715 -4.509219,0.6594 -8.32,0.74208 z"
       style="fill:#10937f;fill-opacity:1;stroke-width:0.32" />
  </g>
</svg>
