<?xml version="1.0" encoding="UTF-8" standalone="no"?>
<svg
   xmlns:dc="http://purl.org/dc/elements/1.1/"
   xmlns:cc="http://creativecommons.org/ns#"
   xmlns:rdf="http://www.w3.org/1999/02/22-rdf-syntax-ns#"
   xmlns:svg="http://www.w3.org/2000/svg"
   xmlns="http://www.w3.org/2000/svg"
   xmlns:sodipodi="http://sodipodi.sourceforge.net/DTD/sodipodi-0.dtd"
   xmlns:inkscape="http://www.inkscape.org/namespaces/inkscape"
   inkscape:version="1.0 (4035a4fb49, 2020-05-01)"
   sodipodi:docname="CBOJLOGO2_copy.svg"
   viewBox="0 0 958.66669 334.64661"
   height="334.64661"
   width="958.66669"
   id="svg16"
   version="1.1">
  <metadata
     id="metadata22">
    <rdf:RDF>
      <cc:Work
         rdf:about="">
        <dc:format>image/svg+xml</dc:format>
        <dc:type
           rdf:resource="http://purl.org/dc/dcmitype/StillImage" />
        <dc:title></dc:title>
      </cc:Work>
    </rdf:RDF>
  </metadata>
  <defs
     id="defs20" />
  <sodipodi:namedview
     inkscape:current-layer="g24"
     inkscape:window-maximized="1"
     inkscape:window-y="-8"
     inkscape:window-x="1912"
     inkscape:cy="66.704206"
     inkscape:cx="575.22057"
     inkscape:zoom="1.0434735"
     showgrid="false"
     id="namedview18"
     inkscape:window-height="1017"
     inkscape:window-width="1920"
     inkscape:pageshadow="2"
     inkscape:pageopacity="0"
     guidetolerance="10"
     gridtolerance="10"
     objecttolerance="10"
     borderopacity="1"
     bordercolor="#666666"
     pagecolor="#ffffff" />
  <g
     transform="translate(-91.830584,-396.16939)"
     id="g24"
     inkscape:label="Image"
     inkscape:groupmode="layer">
    <path
       id="path32"
       d="m 838.49726,732.68862 -6,-0.12733 -12.97616,-1.7692 -12.97618,-1.76919 -1.35716,-0.83877 -1.35717,-0.83875 v -15.25465 -15.25464 h 0.45793 0.45794 l 7.8754,2.88776 7.8754,2.88776 14,0.11226 14,0.11227 4.66666,-2.48929 4.66667,-2.48931 2.98637,-2.73031 2.98636,-2.73032 3.00735,-7.44705 3.00733,-7.44705 0.40915,-89 0.40915,-89 h -19.40286 -19.40285 v -14 -14 h 35.33333 35.33334 l -0.0465,101 -0.0465,101 -1.86728,10.47694 -1.86728,10.47696 -3.67236,7.50603 -3.67236,7.50603 -6.42617,6.42617 -6.42618,6.42617 -8.321,3.86538 -8.321,3.86536 -8.66666,1.38208 -8.66667,1.38206 -6,-0.12733 z M 135.83059,727.50275 H 91.830584 V 562.83609 398.16942 h 44.000006 44 v 12 12 h -29.33333 -29.33334 v 140.66667 140.66666 h 29.33334 29.33333 v 12 12 z m 870.66671,0 h -44 v -12 -12 h 29.3333 29.3333 V 562.83609 422.16942 h -29.3333 -29.3333 v -12 -12 h 44 44 V 562.83609 727.50275 Z M 324.586,665.4525 l -13.42208,0.56111 -8.14925,-1.15447 -8.14927,-1.15447 -5.85073,-1.53173 -5.85075,-1.53173 -10.66666,-5.17375 -10.66667,-5.17375 -6.25591,-5.43304 -6.25592,-5.43304 -5.86365,-8.96244 -5.86365,-8.96244 -2.85334,-7.33333 -2.85334,-7.33333 -2.09863,-8 -2.09864,-8 -0.75263,-17.33334 -0.75264,-17.33333 2.17784,-12.45173 2.17784,-12.45175 3.80648,-9.80291 3.80648,-9.8029 6.13691,-8.6001 6.13691,-8.6001 6.36961,-5.62692 6.36961,-5.62694 6.66667,-3.86432 6.66667,-3.86432 10.66666,-3.4675 10.66667,-3.46751 15.45233,-0.69403 15.45234,-0.69404 9.21433,1.55843 9.21433,1.55843 12,4.01629 12,4.01631 4.66667,2.27665 4.66667,2.27667 0.37096,18.32281 0.37096,18.32281 h -1.52499 -1.52497 l -9.04891,-6.0157 -9.04891,-6.0157 -7.35621,-3.25326 -7.35621,-3.25327 -8.44086,-2.19551 -8.44086,-2.1955 -13.33334,0.51373 -13.33333,0.51373 -7.62409,3.52415 -7.62408,3.52415 -6.53272,6.1106 -6.53272,6.11058 -4.15027,7.78671 -4.15027,7.78669 -2.15666,9.19598 -2.15666,9.19596 0.62775,20 0.62775,20 2.84182,7.89236 2.84183,7.89237 4.10951,6.40412 4.10952,6.40413 4.82149,4.23332 4.82149,4.23334 8.33823,3.90192 8.33824,3.90193 9.83573,0.74388 9.83575,0.74387 8.99075,-1.56567 8.99074,-1.56567 7.10588,-2.65865 7.10587,-2.65864 11.60308,-7.28464 11.60308,-7.28464 h 1.85615 1.85614 v 17.87557 17.87558 l -9.74114,4.05525 -9.74115,4.05525 -11.83677,3.43016 -11.83679,3.43016 z m 177.91126,0.55112 -11.33334,-0.1264 -5.89974,-1.15751 -5.89976,-1.1575 -6.76691,-2.21412 -6.76692,-2.21411 -6.28901,-3.14896 -6.289,-3.14896 h -0.60506 -0.60505 l -0.87855,4 -0.87854,4 H 435.72464 421.16392 V 529.50273 398.16939 h 15.33334 15.33333 v 46.73404 46.73403 l 8.33333,-5.91016 8.33334,-5.91016 8.32413,-4.17175 8.32412,-4.17176 7.67588,-2.01033 7.67587,-2.01035 12.6677,-0.0552 12.66772,-0.0552 6.6037,1.47992 6.6037,1.47992 7.77027,4.14151 7.77028,4.14152 7.85501,8.39703 7.85502,8.39704 4.77096,9.7283 4.77097,9.72832 2.78692,10.66667 2.78691,10.66667 0.68133,22 0.68133,22 -2.74049,13.21702 -2.74049,13.21703 -5.2049,10.78297 -5.20489,10.78298 -6.09581,8 -6.0958,8 -7.09472,5.47938 -7.09472,5.47939 -6.97446,3.53013 -6.97446,3.53014 -8.35887,1.97077 -8.35888,1.97077 -11.33333,-0.1264 z m -4.66667,-29.56087 16,-0.34969 8.29649,-3.79404 8.29651,-3.79404 6.72759,-7.11344 6.72758,-7.11343 2.73862,-6.38768 2.7386,-6.38768 1.83102,-8 1.83103,-8 0.88248,-11.33333 0.88248,-11.33333 -1.57557,-13.08248 -1.57556,-13.0825 -2.66208,-8.10906 -2.66207,-8.10907 -2.14535,-3.47511 -2.14536,-3.47512 -4.09321,-4.45017 -4.0932,-4.45017 -4.66667,-2.39551 -4.66666,-2.39551 -7.84439,-1.61908 -7.8444,-1.61908 -7.48893,0.90768 -7.48895,0.9077 -9.86555,3.28108 -9.86554,3.28108 -8.80112,5.25361 -8.80112,5.25361 -2.34862,1.8472 -2.34861,1.84722 0.34861,53.75992 0.34862,53.75992 7.85545,3.15756 7.85547,3.15756 6.8112,1.90254 6.81121,1.90255 z m 216,29.15226 -16,0.53981 -8.97085,-2.01759 -8.97086,-2.0176 -6.2736,-2.68917 -6.2736,-2.68917 -8.16837,-5.82883 -8.16837,-5.82883 -4.71307,-5.78044 -4.71308,-5.78044 -3.66405,-5.83548 -3.66407,-5.83548 -3.33139,-8.83118 -3.3314,-8.83119 -1.93178,-10 -1.93178,-10 -0.012,-18.0772 -0.012,-18.0772 2.17667,-10.58947 2.17667,-10.58946 4.03368,-9.71808 4.03366,-9.71808 5.63264,-7.6514 5.63264,-7.65139 7.11964,-6.22809 7.11966,-6.22811 8.18804,-4.03095 8.18804,-4.03096 9.1018,-2.11085 9.10178,-2.11085 13.81382,-0.0215 13.81381,-0.0215 7.66491,1.57924 7.6649,1.57923 8,3.64984 8,3.64984 8.01686,6.07355 8.01685,6.07354 5.83036,7.79155 5.83036,7.79155 3.78893,8 3.78894,8 2.89705,10.66666 2.89707,10.66667 0.12693,22.66667 0.12693,22.66666 -1.78937,8 -1.78939,8 -3.39569,8.66667 -3.39569,8.66667 -5.64206,8.66666 -5.64204,8.66667 -5.83297,5.58531 -5.83297,5.5853 -8,4.79646 -8,4.79645 -8.66667,2.72779 -8.66667,2.7278 -16,0.53981 z m -1.19768,-27.81146 12.13565,-0.38676 8.79416,-4.32934 8.79416,-4.32936 5.34115,-6.06787 5.34116,-6.06787 2.71145,-5.60112 2.71146,-5.60112 2.68425,-10.49529 2.68424,-10.49531 v -18.24009 -18.24009 l -2.57941,-10.08544 -2.57943,-10.08544 -3.51451,-6.93554 -3.51449,-6.93553 -5.85047,-5.686 -5.85046,-5.68601 -5.82875,-2.73983 -5.82873,-2.73983 -8.53692,-1.54804 -8.53692,-1.54804 -7.33319,0.91623 -7.33317,0.91621 -7.01899,2.62614 -7.01899,2.62614 -7.06476,6.4568 -7.06477,6.4568 -3.48383,7.11574 -3.48382,7.11573 -2.381,8.66667 -2.38102,8.66666 -0.0345,20.66667 -0.0345,20.66667 2.41553,8.66666 2.41553,8.66667 3.47794,7.10369 3.47793,7.1037 7.76843,7.19218 7.76842,7.1922 8.29778,2.70456 8.29778,2.70456 12.13566,-0.38676 z M 886.49726,440.83609 h -17.33334 v -16.66667 -16.66667 h 17.33334 17.33333 v 16.66667 16.66667 z"
       style="fill:#ffffff;stroke-width:1.33333" />
    <path
       transform="translate(91.830584,396.16939)"
       id="path34"
       d="m 207.69807,268.52235 c -11.18261,-2.01663 -14.83743,-3.22031 -26.54303,-8.74169 -13.62516,-6.42681 -21.34409,-12.96275 -29.32286,-24.82888 -11.23961,-16.7157 -15.69311,-31.77301 -16.95386,-57.32114 -0.7995,-16.20111 -0.7071,-18.11359 1.46184,-30.25681 3.06884,-17.18151 7.57052,-28.62877 15.89512,-40.41944 11.12691,-15.75977 24.02257,-25.204732 42.62234,-31.217219 9.31566,-3.011342 12.13234,-3.468223 26.05881,-4.226873 13.55096,-0.738195 16.97008,-0.612879 25.87512,0.948357 10.97296,1.923783 29.12088,7.679834 37.29384,11.828641 l 4.99118,2.533646 0.27968,18.213658 c 0.33496,21.81297 0.95797,21.21397 -12.66518,12.17719 -10.73646,-7.12192 -19.8337,-11.30825 -30.81236,-14.17912 -6.63964,-1.73623 -10.2647,-2.05675 -21.40973,-1.89296 -13.12219,0.19284 -13.58503,0.27233 -21.08343,3.62097 -11.48798,5.13031 -20.1632,13.24727 -25.64491,23.99462 -2.3555,4.61815 -5.22695,12.25267 -6.39023,16.99014 -1.97341,8.03669 -2.06847,9.93053 -1.44306,28.75013 0.63332,19.0578 0.82363,20.57596 3.52106,28.08862 3.50047,9.74918 10.47911,20.54023 16.45283,25.44095 2.46339,2.02092 8.11355,5.37765 12.55591,7.45942 7.07633,3.31607 9.29765,3.87589 17.92943,4.51852 19.04081,1.41757 34.4879,-2.8697 53.52956,-14.85692 6.1372,-3.86354 12.08153,-7.0246 13.2096,-7.0246 2.02319,0 2.05103,0.2449 2.05103,18.04295 v 18.04294 l -9.82296,3.99671 c -5.40263,2.19819 -14.99798,5.5137 -21.32301,7.36781 -10.59653,3.10625 -12.74239,3.40549 -27.31262,3.80883 -10.88835,0.3014 -18.05086,0.0341 -23.00011,-0.85845 z"
       style="fill:#13af97;stroke-width:0.958338" />
  </g>
</svg>
