<?xml version="1.0" encoding="UTF-8" standalone="no"?><svg xmlns:dc="http://purl.org/dc/elements/1.1/" xmlns:cc="http://creativecommons.org/ns#" xmlns:rdf="http://www.w3.org/1999/02/22-rdf-syntax-ns#" xmlns:svg="http://www.w3.org/2000/svg" xmlns="http://www.w3.org/2000/svg" xmlns:sodipodi="http://sodipodi.sourceforge.net/DTD/sodipodi-0.dtd" xmlns:inkscape="http://www.inkscape.org/namespaces/inkscape" inkscape:version="1.0 (4035a4fb49, 2020-05-01)" sodipodi:docname="LOGOBLACK.svg" viewBox="0 0 306.5245 110.8671" height="110.8671" width="306.52451" id="svg10" version="1.1"><metadata id="metadata16"><rdf:RDF><cc:Work rdf:about=""><dc:format>image/svg+xml</dc:format><dc:type rdf:resource="http://purl.org/dc/dcmitype/StillImage"/><dc:title/></cc:Work></rdf:RDF></metadata><defs id="defs14"/><sodipodi:namedview inkscape:current-layer="g18" inkscape:window-maximized="1" inkscape:window-y="-8" inkscape:window-x="1912" inkscape:cy="48.67655" inkscape:cx="95.022487" inkscape:zoom="3.2344932" showgrid="false" id="namedview12" inkscape:window-height="1017" inkscape:window-width="1920" inkscape:pageshadow="2" inkscape:pageopacity="0" guidetolerance="10" gridtolerance="10" objecttolerance="10" borderopacity="1" bordercolor="#666666" pagecolor="#ffffff"/><g transform="translate(-6.0229871,-6.9709286)" id="g18" inkscape:label="Image" inkscape:groupmode="layer"><path id="path910" d="m 268.15777,24.566025 c -1.60098,-0.0023 -2.59342,-0.200166 -3.78336,-0.754272 -0.88719,-0.413131 -2.02546,-1.239724 -2.52948,-1.836875 -0.50402,-0.59715 -1.17897,-1.661727 -1.49989,-2.365727 -0.40937,-0.898021 -0.5835,-2.043958 -0.5835,-3.84 0,-1.796043 0.17413,-2.941979 0.5835,-3.840001 0.32092,-0.704 0.96914,-1.736803 1.44048,-2.2951191 0.47134,-0.558316 1.60188,-1.386316 2.51231,-1.84 1.23307,-0.614467 2.14946,-0.824426 3.59249,-0.823096 1.06544,9.92e-4 2.45883,0.146687 3.09642,0.32379 0.63759,0.177104 1.81353,0.897923 2.6132,1.60182 0.79967,0.703898 1.78744,1.9621921 2.19505,2.7962101 0.58668,1.200426 0.74111,2.04982 0.74111,4.076396 0,2.018475 -0.15506,2.877227 -0.73301,4.059656 -0.40315,0.824812 -1.31648,2.026804 -2.02964,2.671095 -0.71315,0.644291 -1.78011,1.373445 -2.37102,1.620344 -0.59091,0.246898 -2.05101,0.447499 -3.24466,0.445779 z" style="fill:#ffffff;fill-opacity:1;stroke-width:0.32"/><path d="m 216.06749,95.565019 c -1.232,-0.0214 -3.32,-0.16246 -4.64,-0.31349 -1.32,-0.15102 -3.696,-0.64136 -5.28,-1.08965 -1.584,-0.44828 -3.91552,-1.302902 -5.18115,-1.899161 -1.26563,-0.596263 -3.20963,-1.699783 -4.32,-2.452269 -1.11037,-0.752487 -3.02685,-2.401053 -4.25885,-3.663476 -1.232,-1.262425 -2.94268,-3.464083 -3.80151,-4.892576 -0.85883,-1.42849 -2.04132,-4.003053 -2.62776,-5.721248 -0.58643,-1.718199 -1.2321,-4.201847 -1.43481,-5.519223 -0.22143,-1.439015 -0.30602,-4.377245 -0.21189,-7.360001 0.11595,-3.674448 0.3352,-5.630106 0.8436,-7.524771 0.37781,-1.408001 1.3188,-3.856001 2.0911,-5.440001 0.77229,-1.584 2.1205,-3.823808 2.99601,-4.977347 0.87552,-1.153543 2.36193,-2.789719 3.30314,-3.635949 0.94121,-0.846228 2.33335,-1.96658 3.09363,-2.489668 0.76028,-0.523088 2.49072,-1.505446 3.84541,-2.183018 1.35469,-0.677571 3.68804,-1.586595 5.18522,-2.020048 1.49718,-0.433456 4.14845,-0.967632 5.8917,-1.187056 1.97499,-0.248592 4.68775,-0.325657 7.19785,-0.20448 2.28218,0.110176 5.17011,0.474189 6.66244,0.839776 1.44878,0.354919 3.75278,1.078253 5.12,1.607408 1.36723,0.529159 3.56587,1.658445 4.88587,2.509527 1.32,0.851082 3.21894,2.299117 4.21988,3.217863 1.00094,0.918742 2.55091,2.656537 3.44438,3.861763 0.89347,1.205226 2.20317,3.426186 2.91044,4.935466 0.70728,1.509277 1.56814,3.847488 1.91304,5.196023 0.34489,1.348534 0.76384,3.909398 0.931,5.69081 0.18462,1.967504 0.19185,4.51577 0.0184,6.491648 -0.15702,1.788996 -0.51474,4.164996 -0.79492,5.280001 -0.28019,1.115004 -0.95441,3.150505 -1.49827,4.523331 -0.54386,1.372826 -1.56433,3.388826 -2.2677,4.48 -0.70338,1.091175 -1.87201,2.694615 -2.59697,3.563201 -0.72496,0.868585 -2.37851,2.421907 -3.67455,3.45183 -1.29605,1.02992 -3.81632,2.580961 -5.6006,3.446756 -1.78428,0.865799 -4.39615,1.865719 -5.80415,2.222059 -1.408,0.35633 -3.856,0.79345 -5.44,0.97137 -1.584,0.17792 -3.888,0.30599 -5.12,0.2846 z m 2.08,-12.682919 c 0.968,-0.07061 2.54585,-0.344599 3.50633,-0.608881 0.96048,-0.264278 2.4716,-0.848028 3.35804,-1.297222 0.88644,-0.449194 2.55052,-1.768493 3.69795,-2.931779 1.14743,-1.163284 2.48346,-2.86033 2.96895,-3.771217 0.48549,-0.910883 1.16757,-2.769917 1.51572,-4.131187 0.43754,-1.710743 0.63155,-3.521504 0.62828,-5.863847 -0.003,-1.884099 -0.21898,-4.297732 -0.48725,-5.435818 -0.26539,-1.12585 -1.00735,-3.045757 -1.64881,-4.266458 -0.64147,-1.220698 -1.97179,-3.035549 -2.95627,-4.032995 -0.98449,-0.99745 -2.6658,-2.277943 -3.73624,-2.845543 -1.07045,-0.5676 -2.86887,-1.249469 -3.99649,-1.515271 -1.12761,-0.265798 -3.05821,-0.482899 -4.29021,-0.482444 -1.232,3.2e-4 -3.21485,0.207404 -4.40634,0.459884 -1.19149,0.25248 -3.03739,0.923325 -4.10202,1.490762 -1.06462,0.567437 -2.70763,1.791431 -3.65114,2.719984 -0.94351,0.928554 -2.11029,2.361991 -2.59286,3.185421 -0.48256,0.823428 -1.23017,2.450359 -1.66135,3.615402 -0.61449,1.660324 -0.81916,2.956535 -0.9467,5.995809 -0.12381,2.950125 -0.0335,4.458525 0.37769,6.306605 0.29722,1.335984 0.97593,3.300618 1.50824,4.365853 0.5323,1.065235 1.68101,2.717127 2.55268,3.670874 0.87167,0.953744 2.2485,2.173667 3.05963,2.710938 0.81113,0.53727 2.28195,1.282253 3.26848,1.65552 0.98652,0.373264 2.80169,0.781107 4.03369,0.90632 1.232,0.12521 3.032,0.169891 4,0.09929 z" style="display:inline;fill:#ffffff;fill-opacity:1;stroke-width:0.32" id="path906"/><path d="m 111.27588,95.568679 c -0.97262,-0.0223 -2.75328,-0.16703 -3.95703,-0.3217 -1.20375,-0.15467 -3.29175,-0.64986 -4.64,-1.10044 -1.34825,-0.45057 -3.099367,-1.19204 -3.891367,-1.647719 -0.792,-0.455677 -2.304,-1.514909 -3.36,-2.35385 -1.056,-0.83894 -2.495997,-2.260681 -3.199997,-3.159421 l -1.28,-1.634073 -0.08834,4.808838 -0.08833,4.808845 H 83.25915 75.747485 V 52.249153 9.5291499 h 7.520001 7.52 V 26.357887 43.186625 l 1.227776,-1.548736 c 0.675277,-0.851805 1.835481,-2.095773 2.578231,-2.764372 0.74275,-0.668598 2.15475,-1.730141 3.13779,-2.358986 0.98304,-0.628841 2.889737,-1.54567 4.237097,-2.037398 1.34737,-0.491728 3.6582,-1.070749 5.13518,-1.286714 1.65424,-0.241881 4.04447,-0.318214 6.22467,-0.19879 1.94659,0.10663 4.69125,0.489232 6.09925,0.85023 1.408,0.360999 3.856,1.305466 5.44,2.098813 1.584,0.793347 3.77943,2.162451 4.87873,3.042452 1.0993,0.879996 2.80305,2.568854 3.78612,3.753014 1.04283,1.256144 2.49993,3.619322 3.49788,5.673015 0.94076,1.936 2.00983,4.738701 2.37572,6.228228 0.36589,1.489526 0.81759,4.345261 1.00378,6.346083 0.24184,2.598749 0.23801,4.658698 -0.0134,7.211774 -0.19357,1.965654 -0.65296,4.725917 -1.02086,6.133917 -0.3679,1.408 -1.20851,3.729111 -1.86801,5.158026 -0.65951,1.428915 -1.78002,3.453472 -2.49004,4.499015 -0.71001,1.045542 -2.44834,2.989789 -3.86294,4.320547 -1.78198,1.676355 -3.43744,2.865341 -5.38949,3.870836 -1.54962,0.7982 -3.82549,1.74967 -5.05749,2.11437 -1.232,0.3647 -3.46022,0.81027 -4.9516,0.99015 -1.49139,0.17988 -3.50739,0.30884 -4.48,0.28658 z m -3.3684,-13.108407 c 1.76,0.0073 3.848,-0.136003 4.64,-0.318409 0.792,-0.182407 2.36318,-0.786064 3.49151,-1.341463 1.25559,-0.618041 2.83183,-1.790138 4.06281,-3.02112 1.3266,-1.326599 2.39985,-2.800893 3.15264,-4.330714 0.62774,-1.275677 1.35298,-3.327411 1.61164,-4.559411 0.25866,-1.232001 0.47279,-3.435575 0.47585,-4.89683 0.003,-1.461257 -0.22862,-3.693258 -0.51483,-4.96 -0.28621,-1.266746 -1.02339,-3.305677 -1.63817,-4.530964 -0.70411,-1.403347 -1.86364,-2.973654 -3.13322,-4.243241 -1.39081,-1.39081 -2.74266,-2.360625 -4.36184,-3.129181 -1.5597,-0.740327 -3.23152,-1.238753 -4.98639,-1.486612 -1.99369,-0.281593 -3.2863,-0.283261 -5.28,-0.0068 -1.92114,0.266387 -3.34759,0.714272 -5.23863,1.644855 -1.945647,0.957449 -3.071397,1.78584 -4.479997,3.296634 -1.03475,1.109817 -2.280513,2.757334 -2.768359,3.661149 -0.487846,0.903817 -1.171846,2.757069 -1.52,4.118339 -0.418019,1.634435 -0.63112,3.517303 -0.627453,5.543847 0.0032,1.687846 0.212646,4.046122 0.465757,5.240608 0.253107,1.194487 0.934608,3.138487 1.514442,4.320001 0.674825,1.375069 1.802833,2.899366 3.134243,4.235354 1.144,1.147932 2.81507,2.477526 3.71348,2.954653 0.898417,0.477129 2.410417,1.076435 3.359997,1.331792 0.94959,0.255356 3.16652,0.470243 4.92652,0.477523 z" style="display:inline;fill:#10937f;fill-opacity:1;stroke-width:0.32" id="path902"/><path id="path900" d="m 38.467485,95.430609 c -2.288,0.0789 -5.168,0.007 -6.4,-0.15926 -1.232,-0.16651 -3.536,-0.6706 -5.12,-1.12019 -1.584,-0.4496 -4.067027,-1.448307 -5.517838,-2.219356 -1.450812,-0.771053 -3.487845,-2.055978 -4.52674,-2.855389 -1.038895,-0.799412 -2.496584,-2.140577 -3.239309,-2.980369 -0.742724,-0.839788 -1.922134,-2.365309 -2.62091,-3.390045 -0.698776,-1.024736 -1.6833307,-2.752736 -2.1878997,-3.84 -0.504569,-1.087264 -1.302251,-3.272845 -1.772628,-4.856845 -0.743068,-2.502295 -0.874933,-3.614429 -1.005465,-8.480001 -0.12689,-4.729834 -0.05242,-6.07304 0.479265,-8.644269 0.346224,-1.674349 1.061776,-4.122349 1.590114,-5.440001 0.528338,-1.317651 1.427722,-3.187731 1.9986297,-4.155731 0.570909,-0.968 1.77106,-2.682087 2.667003,-3.809079 0.895943,-1.126992 2.647857,-2.858736 3.893143,-3.848317 1.245286,-0.989584 3.411313,-2.389507 4.813396,-3.110941 1.402081,-0.721433 3.485239,-1.608454 4.629239,-1.971158 1.144,-0.362704 2.944,-0.847309 4,-1.0769 1.180272,-0.256611 4.015895,-0.410832 7.36,-0.400291 4.400908,0.01389 6.012396,0.149632 8.436684,0.710733 1.648176,0.381472 4.142048,1.188771 5.541933,1.794 1.399888,0.605232 3.354919,1.580013 4.344519,2.166186 0.989597,0.586173 3.03017,2.251325 4.534602,3.700343 2.708883,2.609104 2.729174,2.640374 2.098796,3.234077 -0.350092,0.329724 -2.408393,2.285821 -4.574003,4.34688 l -3.937469,3.747376 -1.292912,-1.16807 c -0.711104,-0.642439 -2.167952,-1.733632 -3.23744,-2.424877 -1.069491,-0.691245 -3.107818,-1.624861 -4.529619,-2.074704 -1.723565,-0.545316 -3.651546,-0.875722 -5.785091,-0.991412 -2.330819,-0.126387 -3.787472,-0.03475 -5.362857,0.337376 -1.189575,0.280992 -2.913312,0.891178 -3.830532,1.355968 -0.917222,0.464791 -2.550019,1.692343 -3.628438,2.727895 -1.078418,1.035552 -2.348319,2.594893 -2.822001,3.4652 -0.473682,0.870311 -1.158879,2.416532 -1.522661,3.436048 -0.481401,1.349149 -0.70464,2.942362 -0.82021,5.853668 -0.120331,3.031264 -0.03239,4.537485 0.363109,6.219325 0.287043,1.220628 0.985777,3.163399 1.552743,4.317274 0.607758,1.236893 1.818869,2.90154 2.950847,4.055879 1.056,1.076861 2.64,2.322029 3.52,2.76704 0.88,0.445008 2.382138,1.041168 3.33808,1.324797 1.144589,0.339597 2.957357,0.515687 5.308813,0.515687 2.508476,0 4.306022,-0.188055 6.042383,-0.632141 1.359408,-0.34768 3.358592,-1.10368 4.442631,-1.68 1.084038,-0.576324 2.843162,-1.862746 3.909162,-2.858717 l 1.938182,-1.810858 4.470375,3.704272 c 2.458707,2.037347 4.470374,3.82065 4.470374,3.96289 0,0.14224 -0.576,0.991587 -1.28,1.887437 -0.704,0.895853 -2.216,2.395901 -3.36,3.333447 -1.144,0.937542 -2.872,2.170339 -3.84,2.739545 -0.968,0.569207 -2.836877,1.466714 -4.153063,1.994468 -1.316182,0.52775 -3.692182,1.22911 -5.28,1.55859 -1.587814,0.32947 -4.758938,0.66361 -7.046937,0.74252 z" style="fill:#10937f;fill-opacity:1;stroke-width:0.32"/><path id="path898" d="m 298.62749,109.36916 h -13.92 v -6.08 -6.080001 h 7.2 7.2 V 59.289154 21.369151 h -7.2 -7.2 v -5.92 -5.9200011 h 13.92 13.92 V 59.449154 109.36916 Z" style="fill:#ffffff;fill-opacity:1;stroke-width:0.32"/><path id="path896" d="M 165.66749,109.36916 H 151.90748 V 59.449154 9.5291499 h 13.76001 13.76 v 5.9200011 5.92 h -7.04 -7.04 v 37.920003 37.920005 h 7.04 7.04 v 6.080001 6.08 z" style="fill:#ffffff;fill-opacity:1;stroke-width:0.32"/><path id="path847" d="m 257.98749,117.76987 c -1.408,0.0781 -3.208,0.091 -4,0.0287 -0.792,-0.0623 -2.3167,-0.25661 -3.38821,-0.43171 -1.07152,-0.1751 -2.87152,-0.62031 -4,-0.98935 -1.12849,-0.36904 -2.08517,-0.70226 -2.12596,-0.74049 -0.0408,-0.0382 0.64321,-2.57994 1.52,-5.64826 0.87679,-3.06832 1.59417,-5.59386 1.59417,-5.6123 0,-0.0184 0.756,0.16882 1.68,0.41613 0.9943,0.26613 2.7455,0.41026 4.29054,0.35313 2.35241,-0.087 2.7321,-0.19283 3.84,-1.07044 0.69529,-0.55076 1.64656,-1.80206 2.18946,-2.88 l 0.96,-1.906101 0.0872,-33.039998 0.0872,-33.040002 h 7.52232 7.52232 l -0.0954,34.640002 c -0.0879,31.900398 -0.13981,34.791849 -0.65647,36.559999 -0.30857,1.056 -1.0035,2.82925 -1.54428,3.94054 -0.54078,1.11129 -1.83333,2.92928 -2.87232,4.03996 -1.21347,1.29721 -2.66184,2.42455 -4.04984,3.15221 -1.18842,0.62303 -3.02476,1.34725 -4.08076,1.60938 -1.056,0.26213 -3.072,0.54052 -4.48,0.61863 z" style="fill:#ffffff;fill-opacity:1;stroke-width:0.32"/></g></svg>