<svg version="1" xmlns="http://www.w3.org/2000/svg" width="682.667" height="682.667" viewBox="0 0 512.000000 512.000000"><path d="M34 256v172h83v-30H67V115h50V84H34v172zM396 99.5V115h49v283h-49v30h83V84h-83v15.5zM259.1 112.1c-58.5 4.5-108.8 42.2-126.5 94.9-5.3 15.9-6.9 27-7 47 0 27.3 4.1 45.5 15.4 67.8 19.5 38.2 54.9 65.1 98.3 74.4 13.8 2.9 44.6 3.2 58 .5 28.5-5.8 59.9-21.8 80.6-41.2l8.8-8.3-10.5-11.3c-5.8-6.3-15.3-16.6-21.2-23l-10.7-11.5-5.9 5.5c-12.8 11.9-32.3 22.1-48.7 25.5-32.2 6.7-64.4-8.7-79.9-38-7.6-14.4-9.3-22-9.3-40.9 0-13.6.3-17.1 2.3-23.8 7.5-25.9 25.6-45.4 49.7-53.4 7-2.3 9.7-2.7 21.5-2.7 11.5-.1 14.6.2 21 2.2 15.4 4.9 29.2 13.5 41.4 25.8l8.2 8.3 20.7-25c17.4-21.1 20.5-25.3 19.5-26.7-.6-.9-4.3-4.5-8.2-8-24-21.1-56.6-34.9-90.1-38.2-11.1-1.1-12.6-1.1-27.4.1z"/></svg>